<svg width="84" height="52" viewBox="0 0 84 52" fill="none" xmlns="http://www.w3.org/2000/svg">
<path d="M29.486 4.48819C29.486 4.48819 29.8669 9.39975 29.486 11.8132C29.1049 14.2267 28.3854 16.8519 27.0306 18.0375C25.6759 19.223 24.4059 19.7311 23.3053 19.0113C22.2045 18.2915 25.3796 17.6987 23.4322 16.5131C21.4848 15.3276 19.7491 17.9104 20.0453 19.4347C20.3418 20.959 22.2405 22.4978 24.1943 22.0598C26.6497 21.5094 28.0211 19.6033 28.7663 18.5032C29.6554 17.1906 30.6291 13.7186 30.756 12.3637C30.883 11.0088 31.0947 6.64761 31.0947 6.64761L35.5325 19.8384L40.4857 19.7764L38.7149 17.1059L39.1383 3.93777C39.1383 3.93777 39.0959 2.49815 39.7309 1.609C40.3659 0.719821 40.8739 0.0847368 40.8739 0.0847368L35.6245 0C35.6245 0 36.5136 1.10091 36.8945 1.86304C37.2756 2.6252 37.4448 3.68373 37.4448 3.68373L37.1061 13.3375L32.7457 3.04857C32.7457 3.04857 31.348 0.726642 29.5707 0.592811C27.2351 0.416876 23.3053 0.762148 21.1462 4.1495C18.9581 7.5824 20.2571 11.4745 23.7707 11.6863C27.2845 11.8979 27.6233 7.02872 26.3534 6.90169C25.0833 6.77464 25.4218 7.87549 25.3372 8.17192C25.2525 8.46832 24.4481 8.89171 23.7707 8.80704C23.0933 8.72237 22.6765 6.96306 23.1359 5.71612C23.7286 4.10716 25.8431 2.32881 27.454 2.32881C29.7824 2.32881 29.486 4.48819 29.486 4.48819Z" fill="#DF001A"/>
<path d="M46.6701 8.32211C44.2636 8.25117 42.0535 10.2877 41.4831 13.1019C40.8496 16.2272 42.4511 19.1896 45.0601 19.7186C47.6691 20.2476 50.2974 18.1429 50.9309 15.0176C51.5643 11.8923 49.963 8.92993 47.3541 8.40091C47.1292 8.35526 46.9005 8.32896 46.6701 8.32211ZM47.1878 10.2476C48.7475 10.2313 49.1673 12.0765 48.4584 14.8654C47.9079 17.0308 46.5079 18.4597 45.2826 18.0072C44.0789 17.5626 43.7074 15.7285 44.4582 13.2864C45.004 11.5108 45.8072 10.2621 47.1878 10.2476Z" fill="#DF001A"/>
<path d="M12.5958 12.6122C11.5546 12.5761 10.4022 12.6884 9.15595 12.9176C4.17099 13.8341 0.285631 18.7099 0.0290775 21.2395C-0.227476 23.769 1.23869 26.1152 3.43791 26.1886C5.6372 26.2619 6.55358 23.9889 6.4436 23.769C6.33366 23.549 6.26022 23.4757 6.26022 23.4757C6.26022 23.4757 4.97738 25.382 3.47462 22.6692C1.97179 19.9563 5.78365 15.7037 6.88328 15.9237C7.98294 16.1437 7.72644 18.2333 7.72644 18.2333L7.57976 33.3006C7.57976 33.3006 7.48819 34.3088 7.17663 34.767C6.9416 35.1126 6.00375 36.1601 6.00375 36.1601L12.3081 36.1234C12.3081 36.1234 11.4361 35.3263 11.1169 34.822C10.7688 34.2721 10.7687 33.3739 10.7687 33.3739L10.8419 27.0684C10.8419 27.0684 12.9679 25.8219 13.481 26.0419C13.9942 26.2619 14.0675 28.5714 14.8373 32.7873C15.6071 37.0033 17.2565 40.596 20.9952 40.6693C24.7339 40.7426 26.64 37.4432 26.64 37.4432C26.64 37.4432 25.5769 38.7629 22.168 38.323C18.7592 37.8831 18.796 31.2477 18.2828 28.1682C17.7696 25.0888 15.497 23.9523 15.497 23.9523C15.497 23.9523 19.3825 22.6325 18.5027 17.7934C17.843 14.1641 15.7194 12.7205 12.5958 12.6122ZM12.4654 14.2482C13.392 14.2482 14.747 14.5757 15.6541 16.5459C17.4684 20.4861 10.7815 24.7373 10.7815 24.7373L11.0407 14.5757C11.0407 14.5757 11.5388 14.2482 12.4654 14.2482Z" fill="#DF001A"/>
<path d="M24.7637 23.0463C21.9047 24.696 20.915 28.3986 20.915 30.7082C20.915 33.0178 21.5747 36.3539 26.4864 36.3905C30.2296 36.4186 31.5081 31.2581 31.5081 31.2581C31.5081 31.2581 30.0786 33.8243 26.853 33.971C24.1442 34.0941 24.1772 30.7449 24.1772 30.7449C24.1772 30.7449 25.7535 30.5983 26.4499 30.3416C27.1463 30.085 28.505 29.427 30.0052 27.3355C31.2148 25.6491 30.7107 24.076 29.7853 22.9363C28.998 21.9667 26.5728 22.0024 24.7637 23.0463ZM26.64 24.1004C26.9267 24.0898 27.2413 24.1594 27.586 24.3293C28.8873 24.9709 28.1267 26.8039 26.8575 27.9633C25.5884 29.1227 23.8108 29.6084 23.8108 29.6084C23.8108 29.6084 23.9664 27.9002 24.5163 26.3862C24.9458 25.2033 25.6159 24.1389 26.64 24.1004Z" fill="#DF001A"/>
<path d="M58.5416 23.0463C55.6825 24.696 54.6929 28.3986 54.6929 30.7082C54.6929 33.0178 55.3526 36.3539 60.2642 36.3905C64.0074 36.4186 65.2858 31.2581 65.2858 31.2581C65.2858 31.2581 63.8564 33.8243 60.6308 33.971C57.922 34.0941 57.955 30.7449 57.955 30.7449C57.955 30.7449 59.5312 30.5983 60.2275 30.3416C60.924 30.085 62.2828 29.427 63.783 27.3355C64.9927 25.6491 64.4885 24.076 63.5631 22.9363C62.7759 21.9667 60.3506 22.0024 58.5416 23.0463ZM60.4178 24.1004C60.7046 24.0898 61.0191 24.1594 61.3639 24.3293C62.6651 24.9709 61.9045 26.8039 60.6353 27.9633C59.3662 29.1227 57.5884 29.6084 57.5884 29.6084C57.5884 29.6084 57.7443 27.9002 58.2941 26.3862C58.7236 25.2033 59.3937 24.1389 60.4178 24.1004Z" fill="#DF001A"/>
<path d="M43.8428 20.2075C43.0355 20.2075 42.0952 20.4868 41.4548 20.8275C40.4302 21.3726 39.7278 22.3255 39.4845 22.6893C39.2162 22.5736 38.935 22.4829 38.6407 22.4233C38.4042 22.3753 38.1638 22.3476 37.9215 22.3404C35.3912 22.2658 33.0676 24.4071 32.4679 27.366C32.0348 29.5026 32.5957 31.566 33.7947 32.9016L33.5791 32.8746L33.8617 32.9751C33.8787 32.9935 33.8966 33.0109 33.9138 33.0288C33.6237 33.302 31.1358 35.6834 31.29 37.0721C31.4536 38.5439 32.1621 39.0346 33.4156 39.1981C34.6693 39.3616 40.2831 38.5984 41.4276 41.433C42.5722 44.2676 40.0107 48.6286 36.904 49.1192C33.7973 49.6098 31.7806 49.6099 30.3635 47.1568C28.9465 44.7038 31.8351 41.8691 31.8351 41.8691C31.8351 41.8691 30.1455 40.888 28.4559 42.0873C26.7664 43.2866 24.5317 48.7376 29.7095 51.1907C34.8873 53.6437 40.5557 50.1006 42.7358 46.1757C44.9159 42.2508 45.0794 38.8165 44.6434 37.8353C44.2074 36.8541 42.6269 35.7911 40.1197 35.9818C38.597 36.0977 35.6504 36.7995 34.7783 36.3089C34.1373 35.9483 34.7021 34.5918 35.0472 33.8954C35.4132 34.0921 35.8085 34.238 36.2288 34.3232C38.972 34.8794 41.7355 32.6664 42.4016 29.3803C42.8671 27.0831 42.1835 24.871 40.7932 23.5568C40.987 23.3599 41.5905 22.8293 42.5449 22.7627C43.7167 22.681 45.6517 22.8173 45.4337 21.2637C45.3247 20.4869 44.6502 20.2075 43.8428 20.2075ZM38.5842 24.4462C40.2241 24.4292 40.4661 26.248 39.7207 29.1804C39.142 31.4572 37.7005 33.0606 36.4122 32.5848C35.1465 32.1173 34.9661 30.2329 35.7555 27.6651C36.3294 25.7983 37.1326 24.4615 38.5842 24.4462Z" fill="#DF001A"/>
<path d="M45.9925 27.7668L46.0432 34.1533C46.0432 34.1533 45.942 34.9517 45.6889 35.4007C45.4358 35.8498 44.9296 36.2988 44.9296 36.2988H49.4853C49.4853 36.2988 48.6412 35.2566 48.3902 34.5671C47.8488 33.0799 47.9744 31.62 48.0681 29.8624C48.1803 27.7571 50.6845 24.0519 51.8589 24.5175C54.1063 25.4086 52.0669 26.9684 52.0669 26.9684C52.0669 26.9684 54.3955 27.6669 54.9017 26.1701C55.4079 24.6732 54.8005 22.2284 53.0289 22.2284C51.2572 22.2284 50.194 23.0766 49.6372 23.6754C49.0804 24.2741 48.1187 26.1701 48.1187 26.1701L48.2705 22.5278C48.2705 22.5278 47.4352 23.9498 46.2709 24.299C45.1068 24.6483 44.3979 24.5984 44.3979 24.5984C44.3979 24.5984 45.6888 25.8208 45.8406 26.5693C45.9924 27.3177 45.9925 27.7668 45.9925 27.7668Z" fill="#DF001A"/>
<path d="M66.7239 21.7733L66.5202 31.8187C66.5202 31.8187 65.7918 35.8511 68.3826 36.3507C71.6418 36.9791 73.8256 32.566 73.722 31.8401C73.6183 31.1143 72.8407 31.4254 72.8407 31.4254C72.8407 31.4254 72.4778 34.225 70.2487 34.225C67.3967 34.225 69.6042 21.547 69.6042 21.547C69.6042 21.547 70.3047 20.9236 71.7302 20.6384C72.3589 20.5127 74.5178 20.2509 74.8806 19.9917C75.2435 19.7325 75.4325 18.7752 75.4325 18.7752C73.0834 20.1744 69.8434 20.135 69.8135 19.9263C69.7617 19.5634 70.4146 14.9816 70.4146 14.9816L68.5711 15.4267C68.5711 15.4267 68.9529 18.6218 67.4496 18.9328C65.9464 19.2439 64.8227 18.6141 62.6807 19.0884C59.6959 19.7492 57.8599 22.1473 57.8599 22.1473C57.8599 22.1473 60.2772 20.2388 64.229 20.1394C67.3017 20.0621 66.5166 21.203 66.7239 21.7733Z" fill="#DF001A"/>
<path d="M76.7053 24.5581C75.9247 28.5145 78.6716 25.4134 81.9379 27.0709C83.9897 28.1121 83.6927 33.5228 81.5905 35.205C79.3948 36.962 75.2386 36.0812 73.3037 33.6734C73.3037 33.6734 74.1517 32.972 74.1185 31.5631C74.6017 32.9616 76.0181 35.6211 79.3793 34.0008C80.4571 33.4812 80.3266 32.0163 80.0334 30.5133C79.7402 29.0102 78.2374 28.7536 77.5043 28.6436C76.7712 28.5336 75.0851 29.3768 74.1322 28.6436C73.1792 27.9104 72.8005 23.5509 75.8183 22.2281C79.3641 20.6739 82.3046 22.894 82.4271 24.577C82.4645 25.0901 82.3539 26.1533 82.3539 26.1533L80.2279 25.7867C80.2279 25.7867 80.8423 25.3093 80.8876 24.8702C81.0627 23.1765 77.2369 21.8634 76.7053 24.5581Z" fill="#DF001A"/>
</svg>
